<?xml version="1.0" standalone="no"?>
<!DOCTYPE svg PUBLIC "-//W3C//DTD SVG 20010904//EN"
 "http://www.w3.org/TR/2001/REC-SVG-20010904/DTD/svg10.dtd">
<svg version="1.0" xmlns="http://www.w3.org/2000/svg"
 width="1000.000000pt" height="1000.000000pt" viewBox="0 0 1000.000000 1000.000000"
 preserveAspectRatio="xMidYMid meet">
<metadata>
Created by potrace 1.14, written by Peter Selinger 2001-2017
</metadata>
<g transform="translate(0.000000,1000.000000) scale(0.100000,-0.100000)"
fill="#000000" stroke="none">
<path d="M8353 8839 c3 -8 60 -147 127 -309 67 -162 145 -349 172 -415 27 -66
52 -129 55 -140 3 -11 10 -26 16 -33 8 -10 -3 -11 -49 -7 -33 2 -97 7 -144 10
-47 3 -114 7 -150 10 -93 8 -180 14 -293 21 -54 3 -107 7 -118 9 -11 2 -81 65
-156 140 -76 76 -138 133 -140 129 -1 -5 15 -61 36 -124 21 -63 37 -116 36
-117 -1 -2 -27 21 -57 51 -180 172 -439 268 -858 316 -52 6 -113 13 -135 17
-66 9 -344 11 -435 2 -209 -21 -280 -31 -460 -65 -323 -62 -654 -179 -1092
-388 -42 -20 -78 -36 -81 -36 -3 0 -8 24 -12 53 -4 28 -8 59 -10 67 -2 8 -15
74 -30 145 -15 72 -34 144 -43 162 -25 48 -104 150 -127 162 -27 16 -53 31
-96 59 -30 18 -51 22 -122 22 -160 0 -299 -44 -387 -124 -44 -39 -61 -64 -85
-125 l-31 -76 23 -47 c18 -38 23 -65 23 -128 0 -61 5 -90 20 -120 12 -24 20
-59 20 -89 0 -44 6 -58 50 -117 50 -66 120 -200 119 -226 0 -7 -48 -44 -107
-83 -298 -193 -544 -396 -837 -690 -215 -214 -276 -280 -443 -474 -26 -30 -52
-59 -57 -65 -6 -6 -42 -49 -80 -96 -39 -47 -74 -90 -80 -97 -5 -6 -46 -63 -89
-127 -62 -91 -84 -116 -103 -117 -12 0 -40 -1 -60 -1 -28 -1 -45 -8 -63 -27
-14 -15 -47 -44 -73 -66 l-48 -38 -257 -2 c-277 -2 -265 0 -409 -66 -58 -26
-60 -36 -10 -43 23 -4 56 -13 72 -20 l30 -14 -60 -26 c-344 -152 -455 -221
-386 -239 21 -5 177 17 231 33 73 21 51 8 -49 -30 -122 -47 -166 -71 -166 -91
0 -20 64 -15 187 17 55 14 102 23 105 21 2 -3 -8 -7 -22 -11 -36 -9 -174 -76
-181 -88 -14 -22 14 -26 81 -12 39 7 84 16 100 19 l30 5 -27 -11 c-47 -18 -33
-32 32 -31 3 0 49 2 103 6 105 7 106 7 297 98 136 65 229 108 235 108 2 0 -10
-24 -27 -52 -38 -65 -49 -85 -127 -226 -63 -114 -139 -277 -180 -387 -13 -33
-27 -69 -32 -80 -20 -47 -82 -279 -104 -395 -3 -14 -7 -34 -9 -45 -2 -11 -7
-40 -10 -65 -3 -25 -8 -54 -10 -66 -4 -19 -8 -50 -20 -149 -2 -16 -7 -57 -10
-90 -4 -33 -11 -94 -15 -135 -14 -122 -3 -369 24 -545 3 -16 7 -48 11 -70 3
-22 16 -84 30 -137 75 -301 195 -505 448 -767 87 -89 120 -115 204 -163 145
-82 241 -133 281 -150 25 -11 61 -26 79 -35 86 -38 289 -96 387 -109 28 -3 59
-8 70 -10 115 -23 383 -23 630 1 63 6 151 16 185 20 19 3 58 7 85 10 56 7 334
61 380 75 129 38 358 115 392 131 24 10 45 19 48 19 5 0 35 12 120 50 46 20
266 126 480 230 188 92 271 140 455 262 124 83 232 157 240 166 8 8 2 6 -15
-5 -128 -87 -674 -376 -870 -461 -223 -97 -709 -217 -1040 -257 -27 -4 -61 -8
-75 -10 -22 -3 -104 -11 -220 -20 -87 -8 -271 -18 -325 -19 -76 -1 -116 6
-297 50 -10 2 -26 6 -35 8 -115 26 -302 103 -438 180 -130 73 -324 208 -352
245 -15 20 -36 45 -46 56 -42 46 -143 208 -192 310 -110 227 -158 445 -181
805 -2 30 -4 143 -4 250 -2 181 0 202 25 295 111 422 233 752 406 1098 l64
128 24 -28 c45 -54 57 -69 140 -173 46 -58 89 -111 96 -118 12 -13 18 -11 125
35 19 8 44 19 55 23 29 11 84 35 125 53 19 9 123 53 230 97 107 45 201 87 208
92 6 6 12 7 12 3 0 -4 10 0 23 8 21 14 60 21 95 18 9 -1 12 -227 12 -1096 0
-1036 1 -1095 18 -1095 9 0 37 5 62 11 25 6 56 12 70 14 14 2 71 13 128 24 56
11 115 23 130 26 15 3 38 7 52 10 14 3 63 12 110 21 121 23 122 23 150 29 14
3 50 10 80 16 30 6 89 17 130 25 41 9 86 18 100 20 41 7 119 22 225 44 55 11
111 22 125 24 62 11 197 37 218 42 l24 5 -8 132 c-13 233 -8 646 11 877 3 30
7 84 10 120 3 36 7 94 10 130 3 36 8 115 10 175 7 157 14 245 19 253 2 4 7 31
10 61 4 30 13 96 21 145 18 119 30 202 41 291 10 83 26 150 79 330 9 28 17 59
19 70 2 11 9 32 15 48 6 15 13 38 15 50 26 145 145 439 241 597 32 52 98 157
147 232 76 119 91 150 109 225 12 49 51 162 87 253 58 146 84 196 177 340 12
19 54 87 92 150 l70 115 1 78 c1 71 0 78 -16 72 -64 -27 -83 -27 -122 -1 l-37
25 -35 -37 c-19 -20 -49 -66 -65 -102 -17 -36 -47 -81 -67 -102 -36 -36 -193
-130 -277 -166 -24 -11 -64 -28 -89 -39 -148 -67 -192 -74 -370 -59 -65 6 -88
3 -175 -23 -60 -17 -104 -26 -110 -20 -5 5 -17 9 -27 9 -10 0 -18 3 -19 8 -1
4 -2 23 -4 42 -1 19 -6 44 -9 55 -6 19 10 29 151 97 291 141 428 201 670 292
99 37 307 96 423 119 343 70 435 73 875 31 213 -20 372 -50 524 -100 122 -40
349 -147 358 -170 3 -8 -10 -38 -29 -67 -34 -49 -134 -205 -153 -236 -8 -13
60 22 147 76 21 13 40 23 42 23 2 0 42 22 89 50 48 28 93 48 104 46 11 -3 87
-21 169 -41 82 -20 157 -39 167 -41 29 -7 48 -12 157 -40 58 -14 110 -27 115
-29 6 -1 27 -5 48 -10 20 -4 39 -11 42 -15 2 -4 -13 -32 -34 -62 -21 -30 -40
-59 -42 -64 -4 -9 -52 -82 -317 -482 l-121 -183 25 -9 c14 -6 42 -10 62 -10
94 1 88 -4 471 379 250 250 368 361 384 362 12 1 33 2 47 4 14 1 59 5 100 9
41 4 95 9 120 11 25 3 71 7 102 10 32 3 77 8 100 10 24 3 66 7 94 10 28 3 59
7 70 9 10 2 44 7 74 11 109 15 188 33 196 47 9 14 -32 50 -81 71 -65 28 -236
67 -405 93 -14 2 -35 5 -47 8 -12 3 -48 7 -80 11 -32 3 -65 8 -73 10 -8 2 -37
6 -65 10 -90 11 -120 17 -126 23 -3 4 -124 185 -269 402 -144 217 -274 408
-289 423 -40 44 -101 75 -160 83 -45 6 -53 4 -48 -7z m-4194 -1623 c-8 -6 -68
-51 -134 -100 -66 -49 -188 -143 -272 -209 l-152 -119 -65 -112 c-71 -122
-138 -194 -246 -267 -36 -24 -74 -48 -84 -54 -11 -5 -56 -51 -100 -101 -73
-83 -108 -109 -161 -120 -5 -1 -30 -7 -55 -13 -25 -6 -49 -11 -53 -11 -7 0 37
65 53 80 4 3 33 39 65 80 156 197 389 436 580 595 33 28 62 53 65 56 13 15
219 170 389 292 l135 97 24 -42 c21 -35 23 -43 11 -52z"/>
</g>
</svg>
